<svg width="16" height="16" viewBox="0 0 16 16" fill="none" xmlns="http://www.w3.org/2000/svg">
<path d="M7.99995 10.8002C9.54635 10.8002 10.8 9.54659 10.8 8.0002C10.8 6.4538 9.54635 5.2002 7.99995 5.2002C6.45355 5.2002 5.19995 6.4538 5.19995 8.0002C5.19995 9.54659 6.45355 10.8002 7.99995 10.8002Z" stroke="#565D6D" stroke-width="0.8" stroke-linecap="round" stroke-linejoin="round"/>
<path d="M10.4 13.501C9.2159 14.0178 7.89661 14.1386 6.63836 13.8454C5.3801 13.5522 4.25009 12.8607 3.4164 11.8737C2.5827 10.8867 2.08985 9.65702 2.01115 8.36746C1.93244 7.07789 2.27209 5.79737 2.97958 4.71633C3.68706 3.6353 4.72459 2.8115 5.93785 2.36746C7.15111 1.92342 8.47529 1.88286 9.71345 2.25182C10.9516 2.62077 12.0376 3.37952 12.8099 4.41523C13.5823 5.45094 13.9996 6.70828 14 8.00024V9.20024C14 9.62459 13.8314 10.0316 13.5314 10.3316C13.2313 10.6317 12.8244 10.8002 12.4 10.8002C11.9757 10.8002 11.5687 10.6317 11.2686 10.3316C10.9686 10.0316 10.8 9.62459 10.8 9.20024L10.8 5.20024" stroke="#565D6D" stroke-width="0.8" stroke-linecap="round" stroke-linejoin="round"/>
</svg>
