<svg width="16" height="16" viewBox="0 0 16 16" fill="none" xmlns="http://www.w3.org/2000/svg">
<path d="M2 6L14 6" stroke="#171A1F" stroke-width="0.8" stroke-linecap="round" stroke-linejoin="round"/>
<path d="M12.8 3.60001L3.2 3.60001C2.88174 3.60001 2.57652 3.72643 2.35147 3.95148C2.12643 4.17652 2 4.48175 2 4.80001L2 12C2 12.3183 2.12643 12.6235 2.35147 12.8485C2.57652 13.0736 2.88174 13.2 3.2 13.2L12.8 13.2C13.1183 13.2 13.4235 13.0736 13.6485 12.8485C13.8736 12.6235 14 12.3183 14 12L14 4.80001C14 4.48175 13.8736 4.17652 13.6485 3.95148C13.4235 3.72643 13.1183 3.60001 12.8 3.60001Z" stroke="#171A1F" stroke-width="0.8" stroke-linecap="round" stroke-linejoin="round"/>
<path d="M5.19995 2V3.6" stroke="#171A1F" stroke-width="0.8" stroke-linecap="round" stroke-linejoin="round"/>
<path d="M10.8 2V3.6" stroke="#171A1F" stroke-width="0.8" stroke-linecap="round" stroke-linejoin="round"/>
</svg>
