<svg width="222" height="222" viewBox="0 0 222 222" fill="none" xmlns="http://www.w3.org/2000/svg">
<path d="M111 0C129.107 -7.91463e-07 146.938 4.42941 162.94 12.902C178.942 21.3746 192.629 33.6332 202.806 48.6087C212.983 63.5843 219.343 80.8223 221.33 98.8195C223.317 116.817 220.871 135.027 214.205 151.862C207.54 168.697 196.857 183.646 183.089 195.405C169.32 207.164 152.884 215.377 135.214 219.327C117.543 223.277 99.1749 222.844 81.7101 218.066C64.2453 213.288 48.2144 204.31 35.0153 191.916L58.5705 166.832C67.6779 175.384 78.7392 181.579 90.79 184.875C102.841 188.172 115.515 188.471 127.708 185.745C139.9 183.02 151.241 177.353 160.741 169.239C170.241 161.126 177.612 150.811 182.212 139.195C186.811 127.578 188.498 115.014 187.127 102.595C185.757 90.1774 181.368 78.2832 174.346 67.95C167.324 57.6169 157.88 49.1585 146.839 43.3124C135.797 37.4663 123.494 34.41 111 34.41L111 0Z" fill="#0068FF"/>
<path d="M35.0153 191.916C21.3859 179.117 11.2103 163.083 5.43273 145.301C-0.344885 127.519 -1.53731 108.566 1.96611 90.2007L35.7666 96.6485C33.3493 109.321 34.172 122.398 38.1586 134.668C42.1451 146.937 49.1663 158.001 58.5705 166.832L35.0153 191.916Z" fill="#44546B"/>
<path d="M1.96611 90.2007C6.8062 64.8281 20.3435 41.9378 40.246 25.473L62.1797 51.9864C48.447 63.3471 39.1063 79.1414 35.7666 96.6485L1.96611 90.2007Z" fill="#94C9F2"/>
<path d="M40.246 25.473C60.1484 9.00828 85.1699 -3.08021e-07 111 0V34.41C93.1772 34.41 75.9124 40.6257 62.1797 51.9864L40.246 25.473Z" fill="#609AF1"/>
</svg>
