<svg width="20" height="20" viewBox="0 0 20 20" fill="none" xmlns="http://www.w3.org/2000/svg">
<path d="M10 12.5C11.933 12.5 13.5 10.933 13.5 9C13.5 7.067 11.933 5.5 10 5.5C8.067 5.5 6.5 7.067 6.5 9C6.5 10.933 8.067 12.5 10 12.5Z" stroke="white" stroke-linecap="round" stroke-linejoin="round"/>
<path d="M8.50004 12.162C8.48788 12.566 8.34977 12.9561 8.10503 13.2777C7.86029 13.5994 7.52116 13.8365 7.13504 13.956L4.86804 15.044C4.77236 15.0842 4.68006 15.132 4.59204 15.187" stroke="white" stroke-linecap="round" stroke-linejoin="round"/>
<path d="M15.408 15.188C15.3199 15.133 15.2276 15.0852 15.132 15.045L12.867 13.957C12.035 13.519 11.502 13.024 11.502 12.163" stroke="white" stroke-linecap="round" stroke-linejoin="round"/>
<path d="M10 17.5C14.1421 17.5 17.5 14.1421 17.5 10C17.5 5.85786 14.1421 2.5 10 2.5C5.85786 2.5 2.5 5.85786 2.5 10C2.5 14.1421 5.85786 17.5 10 17.5Z" stroke="white" stroke-linecap="round" stroke-linejoin="round"/>
</svg>
