<svg width="16" height="16" viewBox="0 0 16 16" fill="none" xmlns="http://www.w3.org/2000/svg">
<path d="M14.4125 3.09563C14.3355 2.91782 14.208 2.76656 14.0458 2.66066C13.8835 2.55476 13.6937 2.49889 13.5 2.5L2.49998 2.5C2.30644 2.50038 2.11717 2.55692 1.95512 2.66276C1.79308 2.76859 1.66523 2.91917 1.58709 3.09624C1.50894 3.27331 1.48386 3.46925 1.51488 3.66029C1.54591 3.85133 1.6317 4.02926 1.76186 4.1725L1.76686 4.17813L5.99998 8.69813L5.99998 13.5C5.99994 13.681 6.04902 13.8586 6.14198 14.0139C6.23494 14.1692 6.36831 14.2963 6.52785 14.3818C6.6874 14.4672 6.86714 14.5078 7.04792 14.4991C7.22869 14.4904 7.40373 14.4328 7.55436 14.3325L9.55436 12.9988C9.69146 12.9074 9.80388 12.7836 9.88162 12.6384C9.95936 12.4932 10 12.331 9.99998 12.1663L9.99998 8.69813L14.2337 4.17813L14.2387 4.1725C14.3703 4.02991 14.4569 3.85174 14.4878 3.66023C14.5187 3.46872 14.4925 3.27235 14.4125 3.09563ZM9.27123 8.0175C9.09754 8.20162 9.00054 8.44501 8.99998 8.69813V12.1663L6.99998 13.5L6.99998 8.69813C7.00057 8.4441 6.90397 8.19947 6.72998 8.01438L2.49998 3.5L13.5 3.5L9.27123 8.0175Z" fill="#565D6D"/>
</svg>
