<svg width="12" height="12" viewBox="0 0 12 12" fill="none" xmlns="http://www.w3.org/2000/svg">
<path d="M2.14279 6.42858C2.61617 6.42858 2.99993 6.04482 2.99993 5.57144C2.99993 5.09805 2.61617 4.71429 2.14279 4.71429C1.6694 4.71429 1.28564 5.09805 1.28564 5.57144C1.28564 6.04482 1.6694 6.42858 2.14279 6.42858Z" stroke="#9095A1" stroke-width="0.857143" stroke-linecap="round" stroke-linejoin="round"/>
<path d="M9.85714 6.42858C10.3305 6.42858 10.7143 6.04482 10.7143 5.57144C10.7143 5.09805 10.3305 4.71429 9.85714 4.71429C9.38376 4.71429 9 5.09805 9 5.57144C9 6.04482 9.38376 6.42858 9.85714 6.42858Z" stroke="#9095A1" stroke-width="0.857143" stroke-linecap="round" stroke-linejoin="round"/>
<path d="M5.99997 6.42858C6.47335 6.42858 6.85711 6.04482 6.85711 5.57144C6.85711 5.09805 6.47335 4.71429 5.99997 4.71429C5.52658 4.71429 5.14282 5.09805 5.14282 5.57144C5.14282 6.04482 5.52658 6.42858 5.99997 6.42858Z" stroke="#9095A1" stroke-width="0.857143" stroke-linecap="round" stroke-linejoin="round"/>
</svg>
