<svg width="25" height="25" viewBox="0 0 25 25" fill="none" xmlns="http://www.w3.org/2000/svg">
<path d="M18.4457 11.9225V9.35109C18.4457 7.75979 17.8136 6.23367 16.6883 5.10845C15.5631 3.98323 14.037 3.35109 12.4457 3.35109C10.8544 3.35109 9.32827 3.98323 8.20306 5.10845C7.07784 6.23367 6.4457 7.75979 6.4457 9.35109V11.9225C6.4457 14.7511 3.87427 15.4368 3.87427 17.0654C3.87427 18.5225 7.21712 19.6368 12.4457 19.6368C17.6743 19.6368 21.0171 18.5225 21.0171 17.0654C21.0171 15.4368 18.4457 14.7511 18.4457 11.9225Z" stroke="#565D6D" stroke-width="2.05714" stroke-miterlimit="10" stroke-linecap="square"/>
<path d="M12.4459 21.3511C11.5794 21.3511 10.7651 21.322 9.99878 21.2654C10.1621 21.7865 10.4876 22.2419 10.9278 22.5652C11.3679 22.8885 11.8998 23.0628 12.4459 23.0628C12.9921 23.0628 13.5239 22.8885 13.9641 22.5652C14.4042 22.2419 14.7297 21.7865 14.8931 21.2654C14.1268 21.322 13.3125 21.3511 12.4459 21.3511Z" fill="#565D6D"/>
</svg>
