<svg width="24" height="24" viewBox="0 0 24 24" fill="none" xmlns="http://www.w3.org/2000/svg">
<path d="M17.9999 11.1427V8.57129C17.9999 6.97999 17.3678 5.45387 16.2425 4.32865C15.1173 3.20343 13.5912 2.57129 11.9999 2.57129C10.4086 2.57129 8.88247 3.20343 7.75725 4.32865C6.63204 5.45387 5.9999 6.97999 5.9999 8.57129V11.1427C5.9999 13.9713 3.42847 14.657 3.42847 16.2856C3.42847 17.7427 6.77132 18.857 11.9999 18.857C17.2285 18.857 20.5713 17.7427 20.5713 16.2856C20.5713 14.657 17.9999 13.9713 17.9999 11.1427Z" stroke="white" stroke-width="2.05714" stroke-miterlimit="10" stroke-linecap="square"/>
<path d="M12.0001 20.5711C11.1335 20.5711 10.3193 20.5419 9.55298 20.4854C9.71634 21.0065 10.0418 21.4618 10.482 21.7851C10.9221 22.1084 11.454 22.2828 12.0001 22.2828C12.5463 22.2828 13.0781 22.1084 13.5183 21.7851C13.9584 21.4618 14.2839 21.0065 14.4473 20.4854C13.681 20.5419 12.8667 20.5711 12.0001 20.5711Z" fill="white"/>
</svg>
