<svg width="16" height="16" viewBox="0 0 16 16" fill="none" xmlns="http://www.w3.org/2000/svg">
<path d="M10.0112 9.41077L9.03362 10.6332C7.51877 9.74314 6.25645 8.48082 5.36642 6.96597L6.58882 5.98837C6.73211 5.8737 6.83338 5.7148 6.8768 5.53648C6.92022 5.35816 6.90335 5.17048 6.82882 5.00277L5.71442 2.49317C5.6345 2.31334 5.49331 2.16773 5.31602 2.08231C5.13873 1.99689 4.93686 1.97721 4.74642 2.02677L2.62482 2.57637C2.42693 2.62826 2.2549 2.75084 2.14125 2.92094C2.0276 3.09105 1.9802 3.29689 2.00802 3.49957C2.38025 6.15056 3.60544 8.6083 5.49836 10.5012C7.39129 12.3941 9.84902 13.6193 12.5 13.9916C12.7026 14.0195 12.9084 13.9722 13.0785 13.8585C13.2485 13.7448 13.3709 13.5727 13.4224 13.3748L13.9728 11.254C14.0224 11.0635 14.0027 10.8617 13.9173 10.6844C13.8319 10.5071 13.6863 10.3659 13.5064 10.286L10.9968 9.17157C10.8291 9.09723 10.6416 9.08037 10.4634 9.12363C10.2851 9.16689 10.1262 9.26784 10.0112 9.41077Z" stroke="#565D6D" stroke-width="0.8" stroke-linecap="round" stroke-linejoin="round"/>
</svg>
